M48
;Layer_Color=9474304
;FILE_FORMAT=4:4
METRIC,LZ
;TYPE=PLATED
T01F00S00C0.2032
T04F00S00C0.7112
T05F00S00C0.9906
T06F00S00C1.2192
%
T01
X00191262Y00027686
X00188976Y00094488
X00284226Y00035306
X00421132Y00097536
X00488696Y00118364
X00510032Y00079248
X00493776Y00045466
X0059055Y00106426
X00604427Y00099377
X0062484Y00099822
X0064516Y0009144
X00695706Y00129794
X00662178Y0026797
X00631444Y00275336
X00599186Y00276606
X00554228Y0029718
X00535432Y00294894
X0055245Y00196088
X0051181Y00191516
X0050419Y0020193
X00501142Y00183642
X00521716Y00279908
X00352044Y002667
X00345186Y00293116
X00362712Y00195834
X0036322Y0018288
X00358394Y00148082
X00345948Y00127762
X00317754Y00130556
X0031877Y00171704
X00247396Y0018161
X00247904Y00198374
X00260604Y00252984
X00232918Y0030099
X00217932Y00300482
X00131064Y00237744
T04
X00633222Y00178308
T05
X00713359Y00094234
X00763397
X00438531Y00149606
X00388493
T06
X00438658Y00018796
X00464058
X00489458
X00514858
X00540258
X00565658
X00591058
X00616458
X00641858
X00667258
X00692658
X00718058
Y00371094
X00692658
X00667258
X00641858
X00616458
X00591058
X00565658
X00540258
X00514858
X00489458
X00464058
X00438658
X00413258
X00387858
X00362458
M30
