M48
;Layer_Color=9474304
;FILE_FORMAT=4:4
METRIC,LZ
;TYPE=PLATED
T01F00S00C0.3048
T02F00S00C0.3810
T03F00S00C0.5080
T04F00S00C0.7112
T05F00S00C0.9200
T06F00S00C1.0000
T07F00S00C2.0460
T08F00S00C2.5400
%
T01
X00287956Y00141478
T02
X00078232Y00066802
X00413512Y00070104
X00533144Y00061137
X00349504Y0014097
X00540258Y00109982
X00511048Y00230378
X00387604Y00211328
X00385572Y00177038
X0034417Y00202692
X00263398Y00200406
X00246126Y00199898
X00218948Y00173228
X00220472Y00148082
X00147066Y00194564
T03
X00466598Y00291846
T04
X0016764Y0004826
X00193548Y00047498
X00221488Y00047752
X0024765Y00048514
X00272542
X00299466
X00325628Y00048006
X00349504
X00376428
X00401574Y0004826
X00426212Y00048006
X00427228Y00235204
X00402336
X00372872Y00234188
X0034798
X00324104Y00233934
X00297688Y00234188
X00270256Y00234442
X00244856Y00234696
X00221234Y0023368
X00196088Y00234188
X00170434Y00233934
T05
X0004827Y00104446
Y00129446
Y00149446
Y00174446
T06
X00508146Y001387
X00558146
T07
X0002117Y00073746
Y00205146
T08
X00025146Y-000127
X00543814Y-00009906
X0054102Y00292608
X0002413Y00289814
M30
